<?xml version="1.0" standalone="no"?>
<!DOCTYPE svg PUBLIC "-//W3C//DTD SVG 20010904//EN"
 "http://www.w3.org/TR/2001/REC-SVG-20010904/DTD/svg10.dtd">
<svg version="1.0" xmlns="http://www.w3.org/2000/svg"
 width="750.000000pt" height="1051.000000pt" viewBox="0 0 750.000000 1051.000000"
 preserveAspectRatio="xMidYMid meet">

<g transform="translate(0.000000,1051.000000) scale(0.100000,-0.100000)"
fill="#000000" stroke="none">
<path d="M0 5255 l0 -5255 3750 0 3750 0 0 5255 0 5255 -3750 0 -3750 0 0
-5255z m3394 2789 c3 -7 16 -13 28 -12 13 1 44 -12 68 -28 50 -34 80 -47 80
-36 0 5 -5 13 -12 20 -6 6 -9 14 -6 17 3 4 18 -6 32 -20 14 -14 26 -21 26 -15
0 7 8 9 20 5 13 -4 20 -2 20 6 0 10 3 10 12 1 7 -7 21 -12 31 -12 11 0 25 -7
31 -16 9 -11 28 -16 67 -15 96 2 109 3 103 15 -3 6 2 2 10 -8 9 -11 16 -15 16
-9 0 14 51 3 102 -21 20 -10 42 -15 47 -11 7 3 8 0 5 -9 -4 -10 -1 -16 10 -16
27 0 86 -33 86 -48 0 -12 3 -12 15 -2 13 10 15 9 15 -9 0 -17 5 -21 18 -17 21
6 44 -11 59 -46 8 -19 17 -26 28 -22 8 3 15 2 15 -3 0 -13 75 -54 84 -46 3 3
6 0 6 -9 0 -13 14 -22 99 -62 13 -6 31 -26 40 -43 20 -40 30 -42 23 -6 -5 27
-4 27 13 10 9 -10 15 -21 12 -24 -11 -11 14 -45 29 -39 16 6 17 1 15 -74 -1
-40 1 -51 8 -40 6 8 11 13 11 10 9 -107 7 -141 -9 -138 -8 2 -25 18 -36 35
-12 19 -28 32 -40 31 -11 0 -42 3 -70 6 -45 6 -47 5 -20 -5 17 -7 35 -16 42
-21 7 -5 18 -6 25 -2 10 5 10 4 1 -6 -10 -10 -18 -11 -43 0 -38 16 -42 12 -34
-28 4 -22 12 -32 25 -32 10 0 21 -5 24 -10 4 -7 12 -7 25 0 14 8 25 4 49 -16
17 -14 35 -23 41 -19 5 3 7 0 4 -8 -3 -9 8 -23 30 -37 42 -25 68 -23 41 4 -15
15 -16 19 -4 26 9 6 23 1 41 -17 16 -15 28 -31 28 -36 0 -5 8 -21 18 -35 19
-28 42 -181 42 -274 0 -26 5 -48 11 -50 8 -3 10 -24 4 -73 -5 -51 -10 -64 -16
-50 -6 15 -8 9 -8 -23 -1 -24 -5 -41 -10 -38 -14 9 -22 -37 -8 -46 9 -6 9 -10
-2 -17 -8 -5 -11 -16 -8 -24 3 -9 1 -17 -5 -19 -6 -2 -12 -13 -13 -24 -3 -29
-15 -76 -26 -99 -12 -27 -30 -101 -35 -145 -3 -29 -2 -31 6 -15 9 17 9 15 5
-9 -7 -35 -35 -67 -35 -40 0 21 -12 11 -15 -13 -5 -37 -18 -63 -31 -63 -8 0
-14 -7 -14 -16 0 -13 3 -14 15 -4 12 10 16 9 21 -4 8 -21 -2 -61 -30 -116 -13
-25 -26 -58 -30 -74 -5 -21 -10 -26 -15 -17 -10 15 -15 7 -25 -31 -3 -16 -12
-28 -19 -28 -12 0 -37 -44 -37 -67 0 -7 -4 -13 -10 -13 -5 0 -10 -6 -10 -12
-1 -30 -119 -150 -141 -145 -10 3 -22 -4 -29 -17 -7 -13 -28 -27 -53 -34 -57
-15 -117 -66 -117 -99 0 -15 -3 -23 -7 -20 -10 11 -33 -13 -33 -34 0 -24 -26
-25 -39 -1 -8 13 -10 8 -11 -25 0 -36 3 -42 18 -37 14 5 14 4 2 -4 -22 -16
-30 -5 -30 39 0 45 -20 50 -31 8 -5 -16 -7 -18 -8 -6 -1 25 -19 21 -24 -5 -2
-14 -5 -6 -6 17 -1 30 -4 36 -11 25 -8 -12 -10 -10 -11 10 0 22 -1 23 -8 6 -7
-19 -8 -19 -15 0 -7 16 -10 14 -21 -16 -12 -32 -14 -33 -15 -10 -1 23 -2 23
-10 5 -7 -19 -9 -18 -19 8 -13 34 -25 35 -17 1 4 -15 3 -23 -3 -20 -5 3 -19
-6 -30 -21 -12 -16 -21 -23 -20 -18 1 6 1 19 0 29 -1 15 -4 17 -13 8 -8 -8
-15 -9 -25 -1 -10 9 -13 5 -14 -17 -1 -17 -3 -22 -6 -11 -2 9 -10 17 -18 17
-11 0 -29 34 -26 53 1 4 -3 7 -9 7 -5 0 -10 -5 -10 -12 0 -9 -3 -9 -12 0 -10
10 -17 4 -36 -25 l-24 -38 5 38 c4 22 2 35 -4 32 -5 -4 -9 -13 -9 -22 0 -12
-5 -11 -20 7 l-20 23 -1 -24 c0 -13 -3 -18 -6 -11 -9 23 -23 12 -23 -18 0 -18
-6 -33 -15 -36 -9 -4 -13 -13 -10 -23 3 -9 -2 -26 -10 -37 -14 -18 -14 -18
-16 6 -1 14 -5 3 -8 -25 -7 -57 -3 -95 10 -95 5 0 6 15 3 33 -4 30 -4 31 6 7
6 -14 9 -38 6 -55 -4 -19 -3 -25 3 -15 5 8 12 32 15 54 4 21 10 35 13 32 4 -3
15 1 25 11 20 18 25 4 6 -15 -7 -7 -9 -13 -5 -13 4 -1 10 -2 15 -3 4 -1 13 -5
20 -9 7 -5 12 -3 12 3 0 7 6 10 14 7 8 -3 22 3 31 13 21 23 49 16 36 -8 -6
-11 -4 -21 5 -30 10 -9 14 -9 14 -1 0 7 9 9 26 5 17 -5 23 -3 19 4 -3 5 1 10
9 10 18 0 10 -30 -20 -75 -10 -15 -12 -25 -5 -25 6 0 17 13 25 29 22 42 43 46
39 7 -2 -17 0 -24 4 -16 3 8 9 17 12 20 3 3 15 22 25 43 11 20 21 35 23 33 7
-7 -20 -101 -33 -117 -8 -8 -14 -22 -14 -30 0 -12 2 -11 10 1 8 13 10 13 10 1
0 -8 12 10 27 40 15 29 40 72 56 94 l29 40 -7 -40 -6 -40 21 35 20 35 -4 -32
c-2 -18 0 -33 5 -33 6 0 9 6 7 13 -3 18 12 58 21 53 9 -6 8 -57 -3 -74 -4 -7
-2 -12 3 -12 6 0 11 -10 12 -22 1 -24 10 10 23 85 4 20 11 37 16 37 5 0 7 -7
4 -15 -9 -23 4 -18 39 15 18 16 36 30 40 30 4 0 13 4 20 10 7 5 28 22 47 37
19 16 47 35 63 42 15 8 27 18 27 23 0 4 6 8 14 8 8 0 21 8 28 18 7 9 40 40 73
67 33 27 81 72 107 99 42 44 48 47 54 30 4 -10 13 -26 21 -35 7 -9 15 -30 16
-48 1 -17 5 -31 9 -31 9 0 -19 -63 -48 -108 -41 -63 -220 -236 -354 -342 -41
-32 -100 -86 -80 -73 105 70 331 263 388 332 79 96 122 183 122 244 0 38 13
26 30 -28 7 -22 25 -60 40 -85 47 -76 73 -173 72 -276 0 -153 -92 -633 -138
-726 -26 -52 -32 -83 -11 -53 13 16 14 15 9 -16 -4 -33 -50 -249 -92 -434 -27
-117 -74 -335 -110 -505 -59 -279 -101 -467 -121 -535 -28 -95 -35 -124 -59
-235 -31 -145 -113 -450 -121 -450 -11 0 -17 63 -8 88 5 13 8 62 8 110 -1 66
-3 77 -8 47 l-7 -40 -8 60 c-11 88 -17 91 -11 5 10 -129 5 -384 -7 -396 -5 -4
-8 -1 -8 7 0 12 -2 12 -9 0 -6 -9 -6 -22 1 -34 11 -21 1 -39 -11 -19 -9 15
-27 -38 -36 -108 -5 -32 -4 -41 4 -30 16 23 23 6 10 -26 -10 -27 -12 -28 -20
-9 -8 16 -8 15 -4 -7 3 -17 -3 -40 -16 -62 -21 -36 -10 -52 11 -18 11 16 11
16 6 -1 -10 -31 -48 -180 -56 -222 -5 -22 -18 -69 -28 -105 -11 -36 -37 -135
-57 -220 -44 -183 -53 -211 -54 -160 -1 19 -6 42 -12 50 -7 11 -9 7 -6 -16 5
-30 4 -31 -19 -20 -13 6 -24 19 -24 29 0 10 -4 16 -9 13 -12 -8 -9 47 4 56 7
5 7 8 0 8 -5 0 -10 21 -10 46 0 25 -3 50 -7 57 -4 7 -6 -6 -4 -28 2 -22 0 -49
-5 -60 -5 -13 -7 4 -7 48 0 37 5 67 10 67 6 0 8 7 5 15 -4 8 -2 17 4 21 6 3 8
13 4 22 -3 8 -1 18 5 22 6 4 16 27 21 51 6 24 16 57 23 74 8 16 19 45 26 63 8
20 18 31 29 30 11 -2 17 5 18 22 1 14 0 19 -3 13 -8 -18 -25 -16 -18 2 8 20
30 19 38 -1 4 -9 9 -14 12 -11 3 3 1 14 -5 25 -7 14 -17 18 -31 15 -11 -3 -20
-9 -20 -14 0 -5 -16 -23 -35 -40 -23 -22 -40 -51 -54 -93 -27 -85 -41 -149
-41 -186 0 -18 -4 -29 -10 -25 -5 3 -10 14 -10 24 0 10 -13 37 -30 59 -16 23
-30 44 -30 46 0 14 -71 155 -81 162 -6 4 -10 3 -7 -2 2 -5 14 -31 27 -59 60
-130 84 -175 124 -236 10 -14 15 -34 11 -43 -5 -14 6 -169 22 -289 3 -28 1
-36 -7 -31 -8 4 -9 3 -5 -5 4 -6 11 -9 15 -6 12 7 31 -41 38 -94 l6 -46 -24
22 -24 22 0 -117 c0 -118 -9 -192 -24 -192 -4 0 -6 14 -3 30 2 17 0 36 -6 43
-19 23 -58 211 -65 317 -2 19 -8 45 -15 56 -6 12 -9 24 -6 27 7 7 64 -15 64
-25 0 -4 4 -8 9 -8 5 0 7 9 4 20 -3 13 -17 22 -39 26 -33 6 -52 33 -39 54 4 6
2 16 -3 23 -5 7 -12 23 -15 37 -7 31 -70 267 -91 340 -17 58 -13 76 10 46 8
-11 14 -17 14 -13 0 13 -34 77 -41 77 -3 0 -12 21 -18 47 -7 27 -21 77 -32
113 -17 61 -59 251 -59 272 0 5 5 6 11 2 11 -7 -8 36 -20 46 -16 12 -31 94
-31 168 0 52 -6 96 -16 123 -17 40 -16 96 2 229 5 43 5 44 -9 19 -8 -14 -17
-48 -21 -75 -17 -127 -18 -131 -27 -106 -5 12 -15 64 -24 115 -8 50 -23 124
-34 162 -56 203 -212 1101 -251 1450 -6 55 -18 151 -26 213 -18 143 -18 154 2
122 11 -19 14 -20 10 -5 -19 76 -27 122 -36 205 -5 52 -17 156 -26 230 -24
204 -6 378 49 458 14 20 29 55 33 77 8 50 14 61 25 44 4 -7 7 29 7 81 0 104
-18 178 -53 224 -57 76 -131 249 -169 398 -13 48 -31 99 -40 113 -16 24 -21
26 -59 19 -78 -15 -99 -10 -165 40 -35 27 -74 65 -88 86 -35 52 -114 304 -114
362 0 29 12 77 31 127 28 71 36 82 74 102 l43 23 26 -30 c14 -16 26 -33 26
-38 0 -4 9 -6 19 -3 16 4 21 -4 32 -42 7 -25 30 -74 51 -109 21 -34 38 -67 38
-72 0 -6 3 -10 8 -10 4 0 9 46 10 103 2 92 10 175 27 277 3 19 10 37 15 38 6
2 10 17 10 33 0 16 11 47 25 69 14 22 25 49 25 60 0 14 4 19 13 14 6 -4 9 -4
5 1 -4 4 6 25 22 45 17 21 30 43 30 49 0 6 5 11 11 11 7 0 9 9 6 23 -3 12 1
33 9 47 15 24 13 13 -4 -30 -13 -33 29 13 44 48 17 42 18 50 2 34 -16 -16 -33
-15 -20 1 6 6 10 23 11 37 0 60 13 87 47 104 19 9 39 16 44 16 23 0 72 59 75
91 6 46 22 107 25 89 1 -8 5 -4 9 10 10 35 39 38 47 5 4 -18 9 -23 14 -14 5 7
6 18 3 25 -3 9 4 13 24 12 15 0 38 3 51 7 17 6 22 3 23 -11 0 -16 2 -15 10 4
5 14 5 39 0 63 -5 23 -5 41 0 45 5 3 9 -5 10 -18 l0 -23 9 23 c11 25 14 26 40
12 15 -8 17 -6 13 8 -5 22 33 28 41 6z m113 -10 c-3 -3 -12 -4 -19 -1 -8 3 -5
6 6 6 11 1 17 -2 13 -5z m-306 -41 c1 -17 2 -17 6 0 5 19 19 22 29 6 4 -7 -1
-16 -10 -21 -9 -5 -14 -13 -11 -19 6 -8 1 -10 -37 -13 -12 -1 -13 21 -3 52 6
18 25 15 26 -5z m544 -14 c11 -17 -1 -21 -15 -4 -8 9 -8 15 -2 15 6 0 14 -5
17 -11z m75 -20 c0 -5 -15 -8 -32 -8 -24 1 -27 3 -10 6 12 2 22 9 22 14 0 6 5
7 10 4 6 -3 10 -10 10 -16z m-749 -102 c-8 -8 -11 -5 -11 9 0 27 14 41 18 19
2 -9 -1 -22 -7 -28z m-36 -39 c-4 -13 -13 -30 -21 -38 -12 -12 -14 -12 -14 3
0 9 5 17 10 17 6 0 10 9 10 20 0 11 5 20 11 20 6 0 8 -9 4 -22z m27 -26 c-7
-2 -12 -10 -12 -18 0 -8 -5 -14 -11 -14 -6 0 -8 7 -5 16 3 9 6 20 6 25 0 4 8
5 17 2 11 -4 12 -8 5 -11z m-82 -67 c0 -8 -4 -15 -10 -15 -5 0 -7 7 -4 15 4 8
8 15 10 15 2 0 4 -7 4 -15z m30 5 c0 -5 -5 -10 -11 -10 -5 0 -7 5 -4 10 3 6 8
10 11 10 2 0 4 -4 4 -10z m-100 -89 c0 -5 -7 -12 -16 -15 -14 -5 -15 -4 -4 9
14 17 20 19 20 6z m-120 -284 c0 -2 -10 -12 -21 -23 -22 -19 -22 -19 -10 4 10
18 31 31 31 19z m1950 -27 c0 -5 -2 -10 -4 -10 -3 0 -8 5 -11 10 -3 6 -1 10 4
10 6 0 11 -4 11 -10z m-30 -15 c7 -9 10 -18 6 -22 -3 -3 -6 -1 -6 5 0 7 -7 12
-15 12 -8 0 -15 5 -15 10 0 15 16 12 30 -5z m30 -77 c0 -5 -4 -8 -10 -8 -5 0
-10 10 -10 23 0 18 2 19 10 7 5 -8 10 -18 10 -22z m404 -278 c27 -10 66 -64
66 -90 -1 -8 -7 -1 -14 15 -14 32 -55 65 -81 65 -23 0 -18 -15 11 -30 14 -8
39 -32 55 -55 16 -22 33 -39 37 -37 10 4 20 -36 21 -85 1 -32 -10 -64 -48
-135 -27 -51 -56 -115 -65 -142 -23 -67 -66 -127 -118 -162 -23 -16 -45 -32
-48 -36 -3 -4 -18 -12 -34 -18 -29 -11 -85 0 -113 22 -13 11 -8 55 8 72 5 6 9
22 9 38 0 31 26 49 74 52 49 2 90 42 104 101 17 70 17 69 -30 132 -24 30 -47
62 -53 69 -10 14 7 95 25 117 43 55 73 87 77 83 3 -2 13 4 24 15 21 21 54 24
93 9z m-2527 -102 c-3 -8 -6 -5 -6 6 -1 11 2 17 5 13 3 -3 4 -12 1 -19z m2290
-191 c0 -17 33 -67 44 -67 19 0 29 -39 17 -67 -23 -51 -89 -96 -116 -80 -9 6
19 194 32 215 10 16 23 15 23 -1z m-297 -1102 c0 -8 -4 -15 -10 -15 -5 0 -7 7
-4 15 4 8 8 15 10 15 2 0 4 -7 4 -15z m-394 -203 c-12 -19 -86 -64 -98 -59 -8
4 -7 6 5 6 9 1 17 5 17 10 0 5 15 18 33 29 34 22 51 27 43 14z m-651 -61 c-4
-22 -23 -61 -30 -61 -4 0 -4 3 14 53 12 31 22 36 16 8z m125 9 c-20 -13 -33
-13 -25 0 3 6 14 10 23 10 15 0 15 -2 2 -10z m357 -52 c-3 -7 -5 -2 -5 12 0
14 2 19 5 13 2 -7 2 -19 0 -25z m-17 -7 c0 -5 -7 -11 -15 -15 -9 -3 -15 0 -15
9 0 8 7 15 15 15 8 0 15 -4 15 -9z m-429 -38 c-12 -20 -14 -14 -5 12 4 9 9 14
11 11 3 -2 0 -13 -6 -23z m33 -8 c-4 -8 -11 -15 -16 -15 -6 0 -5 6 2 15 7 8
14 15 16 15 2 0 1 -7 -2 -15z m96 -35 c0 -5 -5 -10 -11 -10 -5 0 -7 5 -4 10 3
6 8 10 11 10 2 0 4 -4 4 -10z m64 -4170 c4 0 4 5 1 10 -3 6 -1 10 4 10 6 0 11
-7 11 -15 0 -8 -6 -15 -14 -15 -8 0 -17 -6 -19 -12 -3 -7 -6 -3 -6 9 -1 12 -5
25 -11 28 -5 3 -10 11 -10 17 0 6 8 1 19 -10 10 -12 21 -22 25 -22z m39 -15
c4 -8 2 -17 -3 -20 -6 -4 -10 3 -10 14 0 25 6 27 13 6z m-3 -42 c0 -5 -5 -15
-10 -23 -8 -13 -10 -12 -10 3 0 10 -4 15 -10 12 -5 -3 -10 -1 -10 4 0 6 9 11
20 11 11 0 20 -3 20 -7z m-30 -42 c0 -6 -4 -13 -10 -16 -5 -3 -10 1 -10 9 0 9
5 16 10 16 6 0 10 -4 10 -9z"/>
<path d="M3111 7834 c0 -11 3 -14 6 -6 3 7 2 16 -1 19 -3 4 -6 -2 -5 -13z"/>
<path d="M4145 7810 c-3 -5 -1 -10 4 -10 6 0 11 5 11 10 0 6 -2 10 -4 10 -3 0
-8 -4 -11 -10z"/>
<path d="M4520 7381 c0 -10 49 -36 55 -29 3 3 3 11 0 19 -5 14 -55 23 -55 10z"/>
<path d="M3032 7300 c-7 -11 -10 -20 -7 -20 3 0 14 9 25 20 12 12 15 20 7 20
-7 0 -18 -9 -25 -20z"/>
<path d="M3265 7289 c-16 -4 -44 -11 -63 -14 -18 -3 -43 -14 -54 -25 -12 -11
-30 -20 -40 -20 -11 0 -17 -4 -14 -9 4 -5 22 -5 43 0 21 5 56 9 78 9 26 0 35
3 27 9 -11 7 -10 10 3 15 9 3 21 4 26 0 5 -3 16 2 25 10 8 9 23 16 32 17 14 0
13 2 -3 9 -24 10 -23 10 -60 -1z"/>
<path d="M4446 7282 c-3 -6 -1 -14 5 -17 15 -10 25 3 12 16 -7 7 -13 7 -17 1z"/>
<path d="M3380 7270 c0 -5 7 -10 15 -10 8 0 15 5 15 10 0 6 -7 10 -15 10 -8 0
-15 -4 -15 -10z"/>
<path d="M4163 7265 c-18 -8 -33 -21 -33 -28 0 -18 27 -30 36 -16 4 6 38 7 97
2 81 -6 160 -8 222 -3 18 1 18 3 -5 15 -14 8 -38 14 -55 15 -16 0 -52 7 -79
15 -61 19 -141 19 -183 0z m234 -41 c-3 -3 -12 -4 -19 -1 -8 3 -5 6 6 6 11 1
17 -2 13 -5z"/>
<path d="M3171 7074 c-60 -16 -151 -62 -151 -77 0 -5 6 -7 14 -4 9 4 12 0 9
-13 -4 -15 3 -21 34 -29 64 -18 85 -9 62 27 -9 15 -8 23 7 40 25 29 35 27 59
-11 40 -63 122 -56 148 14 12 31 35 32 70 1 9 -8 17 -12 17 -7 0 4 7 2 15 -5
8 -7 12 -17 8 -23 -3 -6 -1 -7 5 -3 13 8 3 35 -22 55 -28 24 -121 51 -171 50
-27 0 -74 -7 -104 -15z m154 -24 c0 -7 -6 -15 -12 -17 -8 -3 -13 4 -13 17 0
13 5 20 13 18 6 -3 12 -11 12 -18z m-61 2 c8 -13 -11 -35 -23 -28 -16 10 -14
36 3 36 8 0 17 -4 20 -8z"/>
<path d="M4222 7064 c-51 -13 -101 -41 -102 -56 0 -13 10 -9 37 12 36 28 47
25 66 -18 9 -22 29 -44 43 -50 14 -7 22 -17 19 -22 -10 -16 2 -12 42 16 21 14
44 37 51 51 13 23 15 24 32 8 25 -22 16 -42 -26 -55 -18 -6 -37 -16 -41 -22
-4 -8 0 -9 13 -4 30 12 39 12 37 1 -1 -6 16 -11 38 -10 21 0 39 2 39 5 0 3 12
7 26 8 35 3 44 10 37 29 -5 12 -2 15 10 10 24 -9 21 12 -5 34 -13 10 -17 18
-10 19 20 0 14 16 -11 29 -30 16 -79 22 -70 8 4 -7 0 -8 -13 -2 -24 10 -102
24 -134 24 -14 0 -49 -7 -78 -15z m58 -34 c0 -21 -24 -28 -35 -10 -8 14 3 30
21 30 8 0 14 -9 14 -20z m55 2 c0 -18 -20 -15 -23 4 -3 10 1 15 10 12 7 -3 13
-10 13 -16z"/>
<path d="M4095 6990 c-3 -5 -1 -10 4 -10 6 0 11 5 11 10 0 6 -2 10 -4 10 -3 0
-8 -4 -11 -10z"/>
<path d="M2403 6978 c-25 -33 -24 -41 3 -18 16 14 31 26 33 28 2 1 -3 2 -11 2
-9 0 -20 -6 -25 -12z"/>
<path d="M3430 6959 c-19 -5 -14 -7 23 -8 26 -1 47 1 47 3 0 8 -46 12 -70 5z"/>
<path d="M4080 6956 c0 -11 8 -16 28 -15 15 0 21 3 12 6 -8 3 -21 10 -27 16
-9 7 -13 5 -13 -7z"/>
<path d="M4140 6946 c0 -2 7 -7 16 -10 8 -3 12 -2 9 4 -6 10 -25 14 -25 6z"/>
<path d="M2345 6829 c-9 -27 3 -127 16 -135 6 -3 7 5 2 23 -4 15 -8 52 -8 81
0 28 -1 52 -2 52 -1 0 -5 -9 -8 -21z"/>
<path d="M2607 6753 c-4 -3 -7 -13 -7 -21 0 -12 3 -12 15 -2 8 7 15 16 15 21
0 11 -14 12 -23 2z"/>
<path d="M4841 6734 c0 -11 3 -14 6 -6 3 7 2 16 -1 19 -3 4 -6 -2 -5 -13z"/>
<path d="M2682 6645 c0 -16 2 -22 5 -12 2 9 2 23 0 30 -3 6 -5 -1 -5 -18z"/>
<path d="M2580 6525 c0 -18 19 -40 26 -32 4 4 0 15 -9 24 -9 10 -17 13 -17 8z"/>
<path d="M2670 6480 c20 -13 33 -13 25 0 -3 6 -14 10 -23 10 -15 0 -15 -2 -2
-10z"/>
<path d="M3564 6366 c-17 -13 -15 -14 29 -14 26 0 54 -5 60 -11 7 -5 18 -6 26
-2 10 6 9 12 -4 25 -20 20 -84 21 -111 2z"/>
<path d="M3918 6363 c-41 -16 -52 -39 -15 -30 12 4 41 9 65 13 24 4 40 10 35
14 -18 17 -50 18 -85 3z"/>
<path d="M3980 6300 c0 -5 7 -10 15 -10 8 0 15 5 15 10 0 6 -7 10 -15 10 -8 0
-15 -4 -15 -10z"/>
<path d="M4110 6115 c-7 -9 -10 -18 -6 -22 3 -3 6 -1 6 6 0 6 16 -4 35 -24 20
-19 37 -35 38 -35 2 0 3 9 4 20 1 11 -2 20 -8 20 -5 0 -9 9 -9 20 0 13 -5 18
-15 14 -8 -4 -15 -1 -15 5 0 16 -15 14 -30 -4z"/>
<path d="M3330 6097 c0 -19 -1 -20 -20 -2 -17 15 -20 16 -20 3 0 -9 -10 -22
-22 -30 -31 -21 -14 -40 30 -34 20 2 38 9 40 15 2 6 8 11 13 11 6 0 6 -8 -1
-19 -17 -33 -11 -41 30 -41 30 0 45 -6 62 -25 22 -25 48 -33 48 -15 0 6 -5 10
-11 10 -5 0 -8 4 -5 8 3 5 41 7 86 4 55 -3 80 -1 80 7 0 6 -11 16 -24 21 -19
7 -23 14 -19 31 6 20 4 21 -38 14 -24 -4 -52 -12 -62 -17 -21 -11 -137 -8
-137 3 0 4 7 14 15 23 8 8 15 19 15 25 0 6 -7 11 -15 11 -8 0 -15 4 -15 8 0 5
-7 9 -15 9 -8 0 -15 -9 -15 -20z"/>
<path d="M4255 6109 c-4 -5 2 -12 12 -16 10 -3 21 -8 25 -10 4 -2 5 3 2 11 -7
18 -31 28 -39 15z"/>
<path d="M4233 6096 c5 -11 1 -16 -13 -16 -18 0 -19 -3 -8 -20 15 -23 30 -27
22 -5 -10 24 9 17 30 -10 15 -19 21 -23 28 -13 12 20 10 28 -7 22 -9 -4 -15 0
-15 8 0 7 -10 22 -22 32 -18 15 -20 16 -15 2z"/>
<path d="M3440 6090 c-8 -5 -12 -11 -9 -14 2 -3 11 -1 19 4 8 5 12 11 9 14 -2
3 -11 1 -19 -4z"/>
<path d="M3928 6061 c16 -10 6 -57 -14 -65 -8 -3 -14 -9 -14 -13 0 -11 61 -34
71 -27 22 13 7 -46 -16 -64 -31 -25 -17 -32 48 -25 43 5 49 10 78 54 30 47 41
54 82 50 19 -2 35 26 21 39 -5 4 -36 10 -69 13 -33 3 -80 14 -105 26 -44 20
-110 30 -82 12z m132 -101 c0 -5 -7 -10 -15 -10 -8 0 -15 5 -15 10 0 6 7 10
15 10 8 0 15 -4 15 -10z"/>
<path d="M3480 5334 c0 -14 4 -23 9 -20 5 3 7 15 4 26 -7 28 -13 25 -13 -6z"/>
<path d="M3441 5314 c0 -11 3 -14 6 -6 3 7 2 16 -1 19 -3 4 -6 -2 -5 -13z"/>
<path d="M3440 5267 c0 -8 7 -14 15 -14 11 0 12 4 4 14 -6 7 -13 13 -15 13 -2
0 -4 -6 -4 -13z"/>
<path d="M3185 5170 c10 -11 20 -20 23 -20 3 0 -3 9 -13 20 -10 11 -20 20 -23
20 -3 0 3 -9 13 -20z"/>
<path d="M4062 5150 c0 -14 2 -19 5 -12 2 6 2 18 0 25 -3 6 -5 1 -5 -13z"/>
<path d="M3453 5135 c-3 -9 -3 -18 -1 -21 3 -3 8 4 11 16 6 23 -1 27 -10 5z"/>
<path d="M3230 5136 c0 -2 8 -10 18 -17 15 -13 16 -12 3 4 -13 16 -21 21 -21
13z"/>
<path d="M3580 5124 c0 -8 5 -12 10 -9 6 3 10 10 10 16 0 5 -4 9 -10 9 -5 0
-10 -7 -10 -16z"/>
<path d="M3551 5114 c0 -11 3 -14 6 -6 3 7 2 16 -1 19 -3 4 -6 -2 -5 -13z"/>
<path d="M3981 5084 c0 -11 3 -14 6 -6 3 7 2 16 -1 19 -3 4 -6 -2 -5 -13z"/>
<path d="M3564 5056 c-3 -21 -4 -39 -1 -42 2 -3 8 11 11 32 4 20 5 38 2 41 -2
3 -8 -11 -12 -31z"/>
<path d="M3300 5076 c0 -3 9 -10 20 -16 11 -6 20 -8 20 -6 0 3 -9 10 -20 16
-11 6 -20 8 -20 6z"/>
<path d="M3511 5024 c0 -11 3 -14 6 -6 3 7 2 16 -1 19 -3 4 -6 -2 -5 -13z"/>
<path d="M3802 5000 c0 -14 2 -19 5 -12 2 6 2 18 0 25 -3 6 -5 1 -5 -13z"/>
<path d="M3496 4927 c3 -10 9 -15 12 -12 3 3 0 11 -7 18 -10 9 -11 8 -5 -6z"/>
<path d="M4084 4898 l-19 -23 23 19 c12 11 22 21 22 23 0 8 -8 2 -26 -19z"/>
<path d="M3596 4847 c3 -10 9 -15 12 -12 3 3 0 11 -7 18 -10 9 -11 8 -5 -6z"/>
<path d="M3758 4728 c5 -5 16 -8 23 -6 8 3 3 7 -10 11 -17 4 -21 3 -13 -5z"/>
<path d="M3828 4733 c6 -3 10 -9 6 -14 -8 -14 2 -11 14 4 8 10 6 13 -11 14
-12 0 -16 -1 -9 -4z"/>
<path d="M3815 4620 l-30 -8 33 -1 c17 0 32 4 32 9 0 6 -1 9 -2 9 -2 -1 -16
-5 -33 -9z"/>
<path d="M3635 4600 c-7 -12 2 -12 30 0 19 8 19 9 -2 9 -12 1 -25 -3 -28 -9z"/>
<path d="M3537 4512 c-31 -32 -57 -61 -57 -66 0 -4 22 -28 49 -52 59 -53 129
-185 141 -266 7 -52 8 -52 9 -11 1 41 21 73 44 73 16 0 6 176 -11 207 -10 17
-9 24 1 30 25 15 47 58 47 90 0 31 -1 32 -21 21 -17 -11 -22 -10 -30 5 -11 19
-68 23 -99 7 -16 -8 -18 -8 -14 5 10 24 2 18 -59 -43z m43 6 c-8 -7 -20 -20
-28 -28 -12 -13 -13 -13 -6 0 12 25 26 40 37 40 6 0 5 -6 -3 -12z"/>
<path d="M3904 4532 c-12 -9 -32 -37 -45 -62 -13 -25 -27 -46 -31 -48 -5 -2
-8 -10 -8 -18 0 -7 -9 -28 -20 -46 -11 -18 -20 -46 -20 -62 0 -25 4 -22 31 30
17 32 35 61 40 62 5 2 9 10 9 17 0 8 6 18 14 22 15 9 50 82 47 97 -2 10 29
-12 41 -29 11 -15 10 -27 -2 -20 -11 7 -40 -18 -40 -34 0 -6 -4 -11 -9 -11
-16 0 -97 -142 -111 -193 -10 -36 -18 -49 -37 -53 -19 -5 -21 -9 -12 -20 8
-10 11 -67 8 -192 -4 -253 -2 -458 6 -601 7 -110 10 -124 27 -129 12 -3 15 -8
9 -11 -7 -4 -7 -17 -2 -36 7 -25 10 -27 16 -12 11 25 25 21 25 -8 0 -26 0 -26
24 -8 19 14 27 32 32 73 7 49 9 52 14 23 4 -26 8 -31 20 -23 10 6 11 10 3 10
-7 0 -13 7 -13 15 0 10 10 15 30 15 23 0 30 -5 30 -19 0 -10 7 -21 15 -25 8
-3 15 -1 15 5 0 6 5 7 10 4 6 -3 10 3 10 15 0 12 5 18 10 15 32 -20 -25 340
-82 515 -26 82 -104 254 -127 285 -13 16 -20 84 -10 90 5 4 9 21 9 39 0 18 3
36 8 40 4 4 7 11 7 14 1 18 32 52 47 52 11 0 15 5 12 14 -3 9 5 15 23 19 15 3
48 23 72 45 l44 38 -59 62 c-57 60 -60 61 -80 44z m113 -1104 c-3 -8 -6 -5 -6
6 -1 11 2 17 5 13 3 -3 4 -12 1 -19z m14 -125 c-9 -15 -10 -12 -10 17 0 29 1
32 10 18 7 -12 7 -24 0 -35z"/>
<path d="M3437 4403 c-14 -13 -6 -19 30 -21 20 -2 40 -5 45 -8 4 -3 8 -2 8 1
0 5 -62 35 -73 35 -2 0 -7 -3 -10 -7z"/>
<path d="M3860 4275 c-8 -9 -8 -15 -2 -15 12 0 26 19 19 26 -2 2 -10 -2 -17
-11z"/>
<path d="M3761 4204 c0 -11 3 -14 6 -6 3 7 2 16 -1 19 -3 4 -6 -2 -5 -13z"/>
<path d="M3652 4035 c-7 -22 -16 -64 -19 -93 -5 -46 -4 -52 11 -46 22 8 28 37
24 114 l-3 65 -13 -40z"/>
<path d="M4053 3225 c0 -22 2 -30 4 -17 2 12 2 30 0 40 -3 9 -5 -1 -4 -23z"/>
<path d="M3433 3132 c10 -10 17 -28 17 -40 0 -12 4 -22 9 -22 5 0 11 -18 15
-40 3 -22 11 -40 16 -40 6 0 10 -9 10 -20 0 -20 29 -101 39 -110 3 -3 16 -26
28 -52 13 -27 27 -48 33 -48 11 0 13 13 3 24 -8 8 -33 77 -33 91 0 6 10 -10
23 -35 12 -25 24 -47 28 -50 3 -3 16 -23 29 -45 13 -22 66 -91 118 -154 51
-62 111 -141 134 -175 50 -73 201 -232 206 -216 3 7 -29 45 -70 84 -41 40 -90
95 -109 122 -19 27 -42 58 -53 69 -10 11 -26 32 -35 46 -9 14 -33 45 -53 70
-72 85 -125 159 -149 206 -13 26 -29 53 -35 59 -5 6 -28 56 -49 110 -22 55
-45 105 -52 112 -8 8 -20 27 -28 43 -10 18 -23 29 -37 29 -20 0 -20 -1 -5 -18z"/>
<path d="M4061 3084 c0 -11 3 -14 6 -6 3 7 2 16 -1 19 -3 4 -6 -2 -5 -13z"/>
<path d="M4072 2975 c0 -16 2 -22 5 -12 2 9 2 23 0 30 -3 6 -5 -1 -5 -18z"/>
<path d="M4082 2860 c0 -19 2 -27 5 -17 2 9 2 25 0 35 -3 9 -5 1 -5 -18z"/>
<path d="M3545 2790 c3 -5 8 -10 11 -10 2 0 4 5 4 10 0 6 -5 10 -11 10 -5 0
-7 -4 -4 -10z"/>
<path d="M4093 2710 c0 -25 2 -35 4 -22 2 12 2 32 0 45 -2 12 -4 2 -4 -23z"/>
<path d="M3607 2660 c3 -11 9 -20 14 -20 11 0 11 3 3 24 -9 23 -23 20 -17 -4z"/>
<path d="M4103 2595 c0 -38 2 -53 4 -32 2 20 2 52 0 70 -2 17 -4 1 -4 -38z"/>
<path d="M3530 2520 c0 -5 5 -10 11 -10 5 0 7 5 4 10 -3 6 -8 10 -11 10 -2 0
-4 -4 -4 -10z"/>
<path d="M3541 2483 c7 -10 15 -20 16 -22 2 -2 3 5 3 17 0 14 -6 22 -16 22
-14 0 -15 -3 -3 -17z"/>
<path d="M3571 2449 c0 -8 5 -24 13 -35 14 -19 15 -18 13 3 0 12 -4 20 -8 17
-4 -2 -10 4 -12 13 -4 14 -5 14 -6 2z"/>
<path d="M3680 2132 c0 -13 70 -85 76 -79 4 4 -6 22 -22 41 -29 35 -54 52 -54
38z"/>
<path d="M3640 2107 c0 -19 44 -67 83 -92 36 -23 35 -2 -2 33 -78 72 -81 75
-81 59z"/>
<path d="M3435 1990 c11 -39 56 -133 73 -152 8 -10 27 -18 41 -17 15 0 20 3
12 6 -23 9 -59 54 -82 103 -12 25 -28 54 -36 65 -14 19 -15 19 -8 -5z"/>
<path d="M3818 1705 c28 -48 36 -53 77 -46 22 3 40 11 40 16 0 9 -51 25 -85
27 -8 0 -21 6 -29 12 -12 9 -12 8 -3 -9z"/>
<path d="M3972 1665 c-23 -47 -29 -80 -13 -70 5 3 11 0 14 -7 2 -7 2 -2 0 12
-2 14 3 43 12 64 23 54 13 54 -13 1z"/>
<path d="M3760 1680 c0 -5 5 -10 10 -10 6 0 10 5 10 10 0 6 -4 10 -10 10 -5 0
-10 -4 -10 -10z"/>
<path d="M3804 1645 c10 -8 23 -12 28 -9 14 9 -2 24 -25 24 -21 -1 -21 -1 -3
-15z"/>
<path d="M3490 1615 c0 -8 4 -15 10 -15 5 0 7 7 4 15 -4 8 -8 15 -10 15 -2 0
-4 -7 -4 -15z"/>
<path d="M3520 1585 c0 -6 11 -27 25 -47 14 -20 36 -61 50 -90 14 -29 22 -42
19 -28 -14 56 -93 196 -94 165z"/>
<path d="M3940 1559 c0 -5 -4 -7 -10 -4 -6 3 -10 -5 -10 -19 0 -38 14 -38 26
0 6 19 7 34 3 34 -5 0 -9 -5 -9 -11z"/>
<path d="M3860 1368 c-16 -29 -30 -60 -30 -68 0 -14 7 -3 51 83 29 56 14 45
-21 -15z"/>
<path d="M3636 1270 c20 -43 24 -47 24 -29 0 8 -10 25 -21 39 l-20 25 17 -35z"/>
<path d="M3600 1276 c0 -14 41 -98 46 -93 6 6 -32 97 -40 97 -3 0 -6 -2 -6 -4z"/>
<path d="M3810 1126 c0 -8 5 -18 10 -21 6 -3 10 1 10 9 0 8 -4 18 -10 21 -5 3
-10 -1 -10 -9z"/>
<path d="M5208 6758 c-3 -26 -15 -65 -27 -88 -11 -22 -21 -48 -21 -58 1 -22
40 51 55 103 6 22 9 51 5 65 -5 21 -7 17 -12 -22z"/>
<path d="M4983 6368 c-13 -6 -23 -14 -23 -19 0 -11 38 1 51 17 13 16 3 17 -28
2z"/>
<path d="M4852 6339 c3 -8 20 -15 44 -16 37 -2 37 -1 8 6 -17 4 -37 11 -44 16
-8 5 -11 3 -8 -6z"/>
</g>
</svg>
