<?xml version="1.0" standalone="no"?>
<!DOCTYPE svg PUBLIC "-//W3C//DTD SVG 20010904//EN"
 "http://www.w3.org/TR/2001/REC-SVG-20010904/DTD/svg10.dtd">
<svg version="1.0" xmlns="http://www.w3.org/2000/svg"
 width="300.000000pt" height="420.000000pt" viewBox="0 0 300.000000 420.000000"
 preserveAspectRatio="xMidYMid meet">
<metadata>
Created by potrace 1.10, written by Peter Selinger 2001-2011
</metadata>
<g transform="translate(0.000000,420.000000) scale(0.100000,-0.100000)"
fill="#000000" stroke="none">
<path d="M1401 3616 c-50 -13 -108 -72 -113 -115 -3 -25 -6 -26 -60 -27 -56
-1 -90 -16 -144 -62 -36 -31 -113 -150 -125 -195 -13 -47 -8 -142 15 -292 8
-54 13 -102 10 -106 -2 -4 7 -14 21 -23 14 -9 25 -23 25 -31 0 -8 9 -29 21
-47 l21 -33 -7 97 c-5 81 -3 101 11 122 15 24 15 26 -1 26 -14 0 -15 3 -5 15
8 9 9 15 2 15 -13 0 -22 -13 -27 -37 -2 -10 -8 -29 -14 -43 -10 -25 -10 -25
-10 7 -1 17 -5 33 -10 35 -5 2 -6 21 -2 45 6 31 5 40 -4 36 -10 -3 -13 20 -12
94 0 88 3 103 29 151 15 29 28 59 28 67 0 7 9 16 19 20 11 3 18 11 16 18 -6
15 62 60 80 53 7 -2 16 2 19 9 3 9 18 14 39 13 19 -1 40 3 48 8 8 5 16 9 19 9
3 0 19 13 35 29 18 18 23 27 13 23 -11 -4 -18 -2 -18 6 0 23 18 40 35 34 9 -4
14 -3 11 2 -3 5 1 14 9 21 8 7 15 9 15 4 0 -5 5 -2 10 6 6 10 26 15 67 14 59
-1 108 -18 98 -34 -3 -5 0 -12 6 -16 6 -3 15 0 20 7 5 8 9 9 9 3 0 -5 19 -18
43 -28 23 -11 50 -26 60 -34 9 -8 25 -20 36 -26 58 -34 92 -64 97 -83 4 -13
12 -23 19 -23 7 0 15 -10 19 -23 3 -13 16 -28 28 -34 13 -6 32 -28 43 -49 10
-22 28 -52 38 -67 16 -23 20 -51 23 -152 2 -68 0 -126 -4 -129 -5 -3 -16 8
-26 25 -9 16 -21 29 -25 29 -4 0 -7 -63 -7 -140 1 -97 4 -140 12 -140 7 0 14
-8 18 -17 3 -10 9 -23 12 -30 3 -6 -5 -21 -17 -32 -17 -16 -19 -21 -7 -21 16
0 42 25 51 51 3 9 -5 27 -19 42 -13 14 -24 33 -24 42 0 21 28 75 39 75 5 0 11
15 14 33 3 17 11 66 17 107 7 41 10 109 8 150 -4 64 -11 86 -43 145 -36 65
-85 131 -145 194 -77 82 -335 224 -399 220 -9 -1 -36 -6 -60 -13z"/>
<path d="M1350 3273 c0 -8 -14 -13 -34 -13 -57 0 -87 -20 -50 -34 9 -4 13 -2
8 5 -4 7 0 9 13 5 11 -4 34 0 51 7 23 10 29 16 22 27 -7 10 -10 11 -10 3z"/>
<path d="M1466 3235 c-3 -8 -1 -15 4 -15 6 0 10 5 10 10 0 7 7 7 21 -1 12 -6
29 -9 40 -6 10 3 23 -1 29 -8 8 -10 7 -14 -7 -18 -12 -3 -9 -5 9 -6 15 0 30
-5 33 -11 8 -13 35 -13 35 0 0 6 -8 14 -17 17 -10 4 -30 15 -45 26 -15 11 -33
17 -42 14 -8 -3 -18 -2 -21 3 -9 15 -42 12 -49 -5z"/>
<path d="M1225 3214 c-4 -20 -13 -31 -23 -30 -9 0 -17 -7 -17 -16 0 -19 -60
-88 -76 -88 -6 0 -8 -4 -4 -9 3 -6 -1 -13 -9 -18 -11 -6 -12 -13 -6 -23 6 -8
10 -10 10 -3 0 6 16 20 35 32 19 11 40 33 46 48 5 16 22 45 35 65 14 20 24 45
21 55 -3 13 -6 10 -12 -13z"/>
<path d="M1709 3167 c-8 -7 -21 -17 -29 -20 -8 -4 0 -5 19 -2 41 6 48 12 34
26 -7 7 -15 6 -24 -4z"/>
<path d="M1747 3142 c-11 -16 5 -52 23 -52 10 0 41 -18 69 -40 29 -23 56 -37
65 -34 17 6 10 34 -9 34 -6 0 -28 16 -49 36 -20 19 -40 32 -45 29 -6 -3 -19 4
-29 16 -11 11 -22 16 -25 11z"/>
<path d="M1265 2902 l-30 -17 27 -3 c15 -2 36 1 46 7 11 6 22 7 26 4 4 -4 28
-8 54 -10 l47 -4 -40 20 c-47 25 -90 26 -130 3z"/>
<path d="M1626 2894 c-9 -8 -16 -16 -16 -17 0 -5 156 5 170 10 20 8 -31 20
-92 22 -30 1 -52 -4 -62 -15z"/>
<path d="M1245 2823 c-34 -8 -42 -23 -21 -39 25 -18 37 -18 30 0 -8 21 14 29
32 12 8 -9 19 -16 23 -16 9 0 41 34 41 43 0 8 -74 7 -105 0z"/>
<path d="M1677 2820 c-9 -6 -22 -8 -27 -5 -6 3 -10 2 -10 -4 0 -5 -3 -16 -6
-25 -5 -12 0 -16 17 -15 22 0 22 1 4 8 -19 8 -19 8 0 19 16 9 24 7 42 -10 22
-20 24 -21 42 -4 21 20 43 14 35 -9 -4 -10 0 -12 15 -8 54 14 26 49 -45 58
-28 3 -57 1 -67 -5z"/>
<path d="M951 2786 c-37 -44 -12 -180 42 -233 36 -36 70 -46 74 -23 3 10 -9
20 -32 29 -38 13 -65 53 -65 96 0 14 -4 25 -10 25 -15 0 -12 64 5 86 24 32 11
51 -14 20z"/>
<path d="M2048 2758 c26 -28 31 -95 8 -104 -8 -3 -17 -21 -20 -39 -7 -37 -47
-75 -77 -75 -12 0 -19 -7 -19 -20 0 -26 29 -26 62 -1 14 11 42 55 63 98 36 75
37 79 24 118 -11 30 -20 41 -39 43 l-25 4 23 -24z"/>
<path d="M1030 2689 c0 -7 -8 -17 -17 -24 -15 -11 -15 -17 -5 -39 7 -15 26
-32 42 -38 24 -8 30 -16 30 -38 0 -15 6 -33 14 -39 7 -6 16 -29 20 -51 3 -21
24 -74 46 -116 33 -64 40 -88 40 -134 0 -69 21 -104 100 -168 30 -24 66 -54
80 -66 49 -41 128 -96 140 -96 36 0 282 199 315 255 23 38 24 49 19 116 -5 64
-2 85 21 154 14 44 32 85 40 90 7 6 16 36 19 67 3 31 9 64 12 72 3 9 1 16 -5
16 -10 0 -14 -11 -25 -80 -4 -19 -15 -44 -26 -55 -20 -21 -70 -171 -70 -209 0
-12 -11 -38 -25 -59 -28 -40 -26 -44 5 -24 17 10 22 9 29 -2 11 -16 9 -25 -11
-72 -18 -41 -73 -91 -173 -157 -38 -25 -77 -54 -86 -64 -23 -25 -69 -24 -76 2
-3 12 -11 19 -17 17 -6 -2 -21 7 -33 20 -12 13 -25 23 -28 23 -23 -1 -27 3
-10 11 20 9 20 9 0 6 -34 -5 -131 78 -163 139 -13 25 -5 64 13 58 7 -3 -12 45
-42 107 -30 62 -58 134 -64 160 -6 26 -19 55 -30 65 -14 12 -19 30 -19 68 0
28 -5 58 -11 66 -7 11 -9 4 -5 -27 6 -46 -9 -58 -34 -28 -12 14 -11 29 5 68 4
10 3 17 -4 17 -6 0 -11 -5 -11 -11z"/>
<path d="M1633 2568 c4 -12 1 -28 -5 -35 -13 -16 4 -17 20 -1 17 17 15 45 -4
52 -13 5 -15 2 -11 -16z"/>
<path d="M1410 2535 c-10 -12 -10 -15 4 -15 9 0 16 5 16 10 0 6 11 8 25 4 15
-4 25 -2 25 5 0 16 -56 13 -70 -4z"/>
<path d="M1545 2541 c-6 -5 -21 -11 -35 -13 -22 -4 -23 -5 -6 -13 11 -5 26 -4
37 3 10 7 28 12 39 12 11 0 20 5 20 10 0 13 -43 13 -55 1z"/>
<path d="M1328 2442 c-16 -9 -28 -22 -28 -30 0 -17 55 11 63 33 8 19 -1 19
-35 -3z"/>
<path d="M1690 2436 c0 -7 7 -19 15 -26 13 -11 15 -8 15 14 0 16 -5 26 -15 26
-8 0 -15 -6 -15 -14z"/>
<path d="M1390 2416 c-47 -10 -51 -13 -30 -19 14 -4 41 -7 60 -7 29 0 36 4 36
20 0 11 -3 19 -6 19 -3 -1 -30 -7 -60 -13z"/>
<path d="M1576 2415 c4 -8 1 -15 -5 -15 -6 0 -11 -4 -11 -10 0 -11 83 -11 101
1 10 6 8 9 -9 9 -13 0 -36 7 -52 15 -26 14 -29 14 -24 0z"/>
<path d="M1745 2180 c-10 -11 -39 -34 -63 -50 -25 -17 -41 -30 -36 -30 15 0
100 62 113 82 15 24 9 23 -14 -2z"/>
<path d="M1880 2168 c0 -3 9 -27 21 -53 17 -38 20 -59 15 -99 -10 -78 -45
-245 -55 -264 -4 -9 -6 -22 -4 -29 2 -7 -4 -50 -15 -95 -25 -100 -49 -211 -57
-258 -15 -79 -119 -495 -125 -500 -7 -5 -12 -27 -26 -102 -3 -18 -8 -40 -12
-48 -3 -8 -11 -40 -18 -70 -36 -161 -88 -349 -95 -344 -5 3 -9 -21 -9 -53 1
-50 2 -56 14 -41 7 10 18 43 25 75 7 32 25 101 41 153 16 52 40 147 55 210 14
63 33 135 42 160 28 84 74 245 78 275 2 17 9 46 15 65 6 19 15 55 20 80 5 25
16 74 24 110 8 36 30 142 50 235 42 195 63 287 77 331 5 17 9 44 9 61 0 16 2
32 5 35 5 5 111 -34 170 -62 11 -5 72 -25 135 -45 113 -36 141 -46 190 -69 14
-7 45 -19 70 -26 25 -8 68 -26 95 -40 60 -30 74 -61 74 -167 1 -39 5 -74 10
-78 14 -8 39 -101 44 -160 2 -27 18 -95 35 -150 16 -55 37 -131 47 -170 9 -38
19 -79 22 -90 11 -43 20 -477 12 -600 -14 -215 -12 -345 5 -345 25 0 30 78 30
500 1 440 1 440 -66 675 -30 105 -46 173 -58 244 -7 36 -20 81 -30 101 -13 25
-17 49 -13 76 3 23 -3 67 -15 109 l-19 70 -99 38 c-263 100 -332 125 -368 131
-22 4 -60 18 -85 31 -26 12 -66 29 -90 36 -46 14 -85 47 -138 119 -18 24 -33
41 -33 38z"/>
<path d="M1431 2128 c-1 -10 -5 -18 -9 -18 -7 0 -18 -16 -40 -63 -2 -4 2 -6
10 -5 16 4 51 75 44 91 -2 7 -5 4 -5 -5z"/>
<path d="M1143 2097 c-44 -63 -72 -85 -140 -107 -37 -13 -98 -38 -134 -57 -39
-19 -139 -52 -235 -77 -93 -25 -190 -54 -216 -65 -51 -23 -53 -27 -82 -156 -9
-38 -23 -95 -30 -125 -8 -30 -18 -75 -21 -98 -4 -24 -20 -71 -35 -105 -39 -86
-58 -145 -87 -272 -26 -108 -26 -117 -28 -515 -1 -363 -5 -441 -22 -502 -3
-13 1 -18 15 -18 16 0 21 15 36 93 16 79 17 117 9 270 -4 100 -4 177 1 177 5
0 3 7 -4 15 -8 10 -10 33 -5 74 4 33 8 100 10 149 2 50 6 95 10 101 3 6 2 11
-3 11 -14 0 -5 66 23 165 14 50 27 97 29 105 2 15 10 35 51 130 23 53 59 189
75 280 8 41 25 113 36 150 5 13 6 13 14 0 8 -12 10 -10 10 8 0 26 30 42 120
62 30 7 64 16 75 20 11 5 52 16 90 25 39 9 120 38 182 66 61 27 125 49 142 49
17 0 31 3 31 8 0 10 49 31 54 23 6 -9 13 -68 22 -176 3 -44 7 -82 9 -85 2 -3
6 -34 9 -70 3 -36 13 -110 21 -165 8 -55 20 -131 25 -169 6 -38 13 -81 16 -95
15 -73 48 -213 64 -271 11 -36 21 -78 24 -95 4 -16 8 -41 11 -55 3 -14 8 -41
11 -60 3 -19 12 -54 20 -77 7 -24 16 -55 19 -70 2 -16 13 -62 24 -103 11 -41
22 -88 25 -105 17 -98 27 -138 37 -157 7 -13 9 -45 6 -80 -3 -32 -4 -58 -2
-58 2 0 10 20 18 43 13 40 13 54 -4 148 -26 140 -38 195 -54 254 -13 45 -39
154 -65 273 -6 23 -10 54 -10 68 0 14 -8 39 -17 57 -9 18 -20 52 -24 77 -4 25
-15 77 -24 115 -34 150 -92 518 -99 634 -2 36 -9 112 -16 168 -10 79 -10 111
-1 148 7 26 10 49 9 51 -2 1 -13 -12 -25 -29z"/>
<path d="M1536 2123 c-4 -5 -13 -8 -18 -8 -6 0 -12 -6 -14 -13 -1 -7 0 -8 3
-2 6 13 23 3 23 -14 0 -9 -10 -12 -27 -10 -16 2 -21 1 -13 -2 8 -4 18 -12 22
-18 11 -17 32 10 34 44 2 32 1 34 -10 23z"/>
<path d="M1416 1804 c-36 -36 -66 -72 -66 -80 0 -15 4 -13 46 25 13 11 17 11
29 -5 8 -11 22 -38 31 -60 16 -41 15 -42 -26 -160 -22 -66 -47 -153 -54 -194
-12 -68 -12 -78 4 -110 24 -48 45 -103 42 -112 -1 -5 3 -8 9 -8 16 0 5 51 -25
117 -14 29 -21 55 -17 58 5 2 12 33 15 67 4 34 14 77 21 95 8 18 12 33 10 33
-3 0 4 24 14 53 42 116 46 210 12 232 -12 7 10 35 27 35 6 0 13 7 16 16 5 14
4 15 -9 4 -12 -10 -15 -10 -15 4 0 17 11 19 48 10 13 -4 22 -14 22 -25 0 -13
5 -17 17 -12 12 5 10 -3 -9 -28 -45 -58 -51 -85 -48 -219 2 -132 3 -140 25
-140 18 0 24 32 9 45 -16 13 -29 125 -15 125 11 0 27 -67 18 -77 -3 -3 0 -11
7 -19 8 -8 13 -30 12 -51 -2 -21 2 -44 7 -50 5 -7 6 -13 2 -13 -4 0 -1 -10 7
-22 9 -13 18 -61 22 -113 3 -49 9 -106 12 -125 3 -19 7 -46 9 -60 2 -14 11
-50 19 -80 l16 -55 -5 45 c-3 25 -11 122 -20 215 -22 261 -45 373 -90 442 -24
36 -19 77 14 112 26 28 60 44 46 22 -8 -14 9 -21 25 -11 15 9 13 12 -55 87
-26 30 -33 32 -70 26 -36 -6 -39 -5 -26 10 31 38 -1 13 -63 -49z"/>
<path d="M2186 1725 c7 -35 50 -135 59 -135 3 0 -1 13 -10 30 -8 16 -15 35
-16 42 0 7 -9 31 -19 53 -17 35 -19 36 -14 10z"/>
<path d="M2187 1514 c-32 -31 -56 -59 -53 -61 2 -3 33 23 68 56 35 33 59 61
53 61 -5 0 -36 -26 -68 -56z"/>
<path d="M2186 1169 c-9 -23 -15 -44 -12 -47 5 -5 15 17 30 66 12 38 -1 24
-18 -19z"/>
<path d="M1351 1149 c-11 -25 -31 -141 -30 -174 1 -23 19 40 30 103 6 37 15
69 20 72 4 3 5 11 1 17 -5 8 -12 1 -21 -18z"/>
<path d="M559 1125 c-4 -3 4 -56 17 -118 13 -62 24 -116 24 -122 0 -5 5 -2 11
8 5 9 7 22 3 29 -8 12 -31 107 -42 171 -4 22 -10 36 -13 32z"/>
<path d="M1460 1097 c0 -8 8 -21 17 -28 9 -8 40 -45 68 -84 57 -76 95 -115 95
-97 0 7 -4 12 -8 12 -4 0 -26 24 -47 53 -81 107 -125 158 -125 144z"/>
<path d="M2141 1058 c-12 -29 -26 -61 -31 -70 -12 -22 -13 -46 -2 -32 14 15
65 144 60 149 -3 3 -15 -18 -27 -47z"/>
<path d="M2426 987 c-10 -45 -18 -113 -19 -150 -1 -37 -5 -67 -9 -67 -11 0 -6
-70 5 -77 6 -3 8 9 5 30 -2 20 0 33 4 31 4 -3 8 1 9 8 1 40 11 144 20 217 5
46 8 85 6 87 -2 2 -12 -33 -21 -79z"/>
<path d="M1994 743 c-54 -109 -99 -201 -101 -205 -2 -5 -2 -8 1 -8 5 0 10 9
123 234 46 92 82 170 79 173 -2 2 -48 -85 -102 -194z"/>
<path d="M1453 837 c1 -14 5 -23 9 -21 4 2 9 0 13 -6 11 -18 22 -11 21 13 -1
12 -7 22 -16 22 -8 0 -18 4 -22 9 -3 5 -5 -2 -5 -17z"/>
<path d="M1382 775 c14 -36 35 -61 43 -53 4 3 -1 14 -9 25 -9 10 -23 27 -31
38 -14 19 -14 18 -3 -10z"/>
<path d="M656 759 c-8 -41 -16 -202 -9 -195 7 7 23 208 17 215 -2 2 -5 -7 -8
-20z"/>
<path d="M1537 665 c3 -9 -1 -23 -10 -33 -8 -9 -20 -37 -27 -61 l-12 -44 -19
29 c-10 16 -19 34 -19 39 0 6 -8 19 -16 30 -29 37 -4 -35 28 -82 19 -29 28
-55 29 -85 1 -24 5 -54 9 -68 l8 -25 2 25 c1 14 1 51 0 83 -2 62 13 122 38
150 8 9 11 17 7 17 -5 0 -4 5 3 12 18 18 15 28 -8 28 -13 0 -18 -5 -13 -15z"/>
<path d="M1816 406 c-14 -24 -26 -51 -25 -58 0 -7 6 -2 12 12 6 14 18 30 27
37 8 7 11 13 6 13 -5 0 -3 7 4 15 7 9 11 18 8 21 -3 3 -17 -15 -32 -40z"/>
<path d="M1627 115 c-42 -52 -72 -95 -67 -95 5 0 13 6 17 14 7 12 22 30 105
129 24 28 34 47 25 47 -1 0 -37 -43 -80 -95z"/>
</g>
</svg>
